<?xml version="1.0" standalone="no"?><!DOCTYPE svg PUBLIC "-//W3C//DTD SVG 1.1//EN" "http://www.w3.org/Graphics/SVG/1.1/DTD/svg11.dtd"><svg t="1560947878341" class="icon" style="" viewBox="0 0 1024 1024" version="1.1" xmlns="http://www.w3.org/2000/svg" p-id="3041" xmlns:xlink="http://www.w3.org/1999/xlink" width="32" height="32"><defs><style type="text/css"></style></defs><path d="M949.19666 128.21198a32.31697 32.31697 0 0 0-24.829672-8.063244c-2.303784 0.31997-249.06465 23.99775-390.171422-111.157579a32.060994 32.060994 0 0 0-44.47583 0.127988C350.852755 144.082492 102.172068 120.404712 99.676302 120.148736a32.060994 32.060994 0 0 0-35.1967 31.805018V391.739274c0 518.799363 435.799144 629.572978 440.150736 630.532888 4.863544 1.27988 9.983064 1.27988 14.910602 0.127988 4.47958-1.087898 440.21473-111.861513 440.21473-630.660876V151.953754a31.741024 31.741024 0 0 0-10.55901-23.741774z m-84.856045 273.894323c0 401.050402-301.027779 505.16864-352.222979 519.951254-51.323188-14.910602-352.350967-119.028841-352.350967-520.015248V212.940037c69.561479 1.91982 235.049964-4.927538 352.414961-101.942443 118.516889 96.886917 283.109458 103.798269 352.158985 101.942443V401.978315z" fill="#ffffff" p-id="3042"></path><path d="M502.838506 574.890104a163.952629 163.952629 0 0 1-163.824642-163.696653 164.016623 164.016623 0 0 1 163.824642-163.824642 163.952629 163.952629 0 0 1 163.696653 163.824642 163.888635 163.888635 0 0 1-163.696653 163.696653z m0-240.361466a76.792801 76.792801 0 0 0-29.43724 147.570165 76.728807 76.728807 0 1 0 29.43724-147.570165z" fill="#ffffff" p-id="3043"></path><path d="M557.873346 748.569822a41.148142 41.148142 0 0 1-82.23229 0V550.764366a41.084148 41.084148 0 1 1 82.23229 0v197.805456z" fill="#ffffff" p-id="3044"></path><path d="M664.999303 649.699091a38.652376 38.652376 0 0 1-38.71637 38.588382h-75.512921a38.652376 38.652376 0 1 1 0-77.240759h75.512921c21.310002 0 38.71637 17.27838 38.71637 38.652377z" fill="#ffffff" p-id="3045"></path></svg>