<?xml version="1.0" standalone="no"?><!DOCTYPE svg PUBLIC "-//W3C//DTD SVG 1.1//EN" "http://www.w3.org/Graphics/SVG/1.1/DTD/svg11.dtd"><svg t="1560948416889" class="icon" style="" viewBox="0 0 1075 1024" version="1.1" xmlns="http://www.w3.org/2000/svg" p-id="5775" xmlns:xlink="http://www.w3.org/1999/xlink" width="33.59375" height="32"><defs><style type="text/css"></style></defs><path d="M151.6544 104.4992h758.016c12.0832 0.3072 23.7312-4.6848 32.4096-13.9008 8.5504-9.2416 13.2608-21.76 13.056-34.7392A49.8688 49.8688 0 0 0 942.08 21.0944a42.9568 42.9568 0 0 0-32.4352-13.9008H151.6544a42.9312 42.9312 0 0 0-32.4096 13.9008c-8.576 9.2416-13.2864 21.76-13.056 34.7648 0 27.648 19.712 48.64 45.4656 48.64zM924.9536 146.176h-0.1024l2.4832 2.56h0.0768l-2.4576-2.56z" fill="#ffffff" p-id="5776"></path><path d="M387.6608 546.6368c63.872 0.8448 97.8944-32.896 135.3472-100.5056 23.2704-25.2672 34.176 20.096 44.032 39.296 9.856 19.2 40.704 70.4512 100.9152 67.9168 72.2944-3.0464 80.8448-43.776 122.88-111.4368 20.0704-12.0576 28.4672 10.0864 40.8576 38.1952 25.9072 38.9888 81.408 73.216 111.5136 73.216 40.96 0 70.1696-34.2272 91.2896-60.672 16.8448-26.5216 26.88-58.368 26.88-90.1632l-94.0288-254.592h-40.8576l7.2192 7.7824-7.2704-7.7824-835.5072-0.128L0 402.4832c0 76.1856 58.9312 150.272 131.7632 150.272 72.704 0 106.8544-100.3008 134.912-109.0816 35.1488-10.112 57.1904 102.0928 120.9856 102.9632z" fill="#ffffff" p-id="5777"></path><path d="M631.7568 819.2c0-42.1376-53.76-38.4512-64.5632-38.4512-2.1504 0-2.4576-4.736-2.7648-6.3488-3.2256-16.896 0-151.1424 0-151.1424s-21.248-41.984-33.0496-73.216c-22.272 57.5232-75.008 94.976-133.4528 94.7712-57.984 0-110.1824-37.504-131.8912-94.7456-27.9808 72.9088-103.552 111.1552-174.3872 88.2432v314.112C91.648 981.6064 126.6176 1024 153.856 1024h429.6704a103.424 103.424 0 0 1-19.0976-44.7232c-4.9408-29.5424-1.024-97.3312-1.024-115.3024 0-1.0752 2.176-0.64 5.7088-0.64 10.6496 0 33.9456-3.968 42.24-8.448 19.9168-10.8032 20.4032-27.2896 20.4032-35.6864z" fill="#ffffff" p-id="5778"></path><path d="M998.4 819.2c0 33.92 25.8048 61.44 57.6 61.44H1075.2v102.4c0 22.6048-17.1776 40.96-38.4 40.96H652.544c-21.1968-0.1536-38.272-18.5856-38.144-41.216v-102.4h19.2c31.7952 0 57.6-27.52 57.6-61.44 0-33.9456-25.8048-61.44-57.6-61.44H614.4v-102.4c0.128-22.528 17.28-40.704 38.4-40.704h384c21.2224 0 38.4 18.3296 38.4 40.96v102.4h-19.2C1024.2048 757.76 998.4 785.2544 998.4 819.2z m-72.4992-12.8c0-9.0624-6.8608-16.384-15.36-16.384h-43.904L910.3104 742.4a16.8448 16.8448 0 0 0 4.096-15.616 15.9488 15.9488 0 0 0-10.8032-9.984 15.3856 15.3856 0 0 0-14.8992 4.352L845.056 768l-44.16-47.872a14.72 14.72 0 0 0-21.4528 2.2784 17.3056 17.3056 0 0 0-0.128 20.736l43.6736 46.8736h-43.904c-8.4992 0-15.36 7.3216-15.36 16.384 0 9.0368 6.8608 16.384 15.36 16.384h51.3536v37.376h-51.3536c-8.448 1.1776-14.4128 9.3696-13.312 18.2784 0.8704 7.424 6.3488 13.312 13.312 14.2336h51.3536v14.08c0 9.0368 6.8864 16.384 15.36 16.384 8.4992 0 15.36-7.3472 15.36-16.384v-14.08h50.4064c8.448-1.2032 14.4128-9.3696 13.312-18.304a15.8976 15.8976 0 0 0-13.312-14.208h-50.4064v-37.376h49.4336c8.4736 0 15.36-7.3472 15.36-16.384z" fill="#ffffff" p-id="5779"></path></svg>