<?xml version="1.0" standalone="no"?><!DOCTYPE svg PUBLIC "-//W3C//DTD SVG 1.1//EN" "http://www.w3.org/Graphics/SVG/1.1/DTD/svg11.dtd"><svg t="1560948611647" class="icon" style="" viewBox="0 0 1024 1024" version="1.1" xmlns="http://www.w3.org/2000/svg" p-id="5206" xmlns:xlink="http://www.w3.org/1999/xlink" width="32" height="32"><defs><style type="text/css"></style></defs><path d="M1024 371.2V166.4c0-38.4-6.4-51.2-44.8-51.2h-896c-38.4 0-44.8 12.8-44.8 51.2v198.4c57.6 12.8 102.4 64 102.4 128s-44.8 115.2-102.4 128v198.4c0 38.4 6.4 51.2 44.8 57.6h889.6c38.4 0 44.8-12.8 44.8-51.2V627.2c-57.6-12.8-102.4-64-102.4-128 6.4-64 51.2-115.2 108.8-128zM326.4 761.6c0 12.8-12.8 25.6-25.6 25.6s-25.6-12.8-25.6-25.6V262.4c0-12.8 12.8-25.6 25.6-25.6s25.6 12.8 25.6 25.6v499.2z m339.2-172.8h-57.6v57.6c0 12.8-12.8 25.6-25.6 25.6s-25.6-12.8-25.6-25.6v-57.6h-57.6c-12.8 0-25.6-12.8-25.6-25.6s12.8-25.6 25.6-25.6h57.6V512h-57.6c-12.8 0-25.6-12.8-25.6-25.6s12.8-25.6 25.6-25.6h32l-32-44.8c-12.8-6.4-6.4-25.6 0-32 12.8-12.8 12.8 0 25.6 12.8l51.2 57.6 57.6-64c12.8-12.8 25.6-12.8 38.4-6.4 12.8 12.8 12.8 25.6 6.4 38.4l-44.8 32h32c12.8 0 25.6 12.8 25.6 25.6s-12.8 25.6-25.6 25.6h-57.6v32h57.6c12.8 0 25.6 12.8 25.6 25.6 0 19.2-12.8 25.6-25.6 25.6z" fill="#e6e6e6" p-id="5207" data-spm-anchor-id="a313x.7781069.0.i2" class=""></path><path d="M985.6 396.8V192c0-38.4-6.4-51.2-44.8-51.2H44.8c-38.4 0-44.8 12.8-44.8 51.2v198.4c57.6 12.8 102.4 64 102.4 128s-44.8 115.2-102.4 128v198.4c0 38.4 6.4 51.2 44.8 57.6h889.6c38.4 0 44.8-12.8 44.8-51.2v-198.4c-57.6-12.8-102.4-64-102.4-128 6.4-64 51.2-115.2 108.8-128zM300.8 774.4c0 12.8-12.8 25.6-25.6 25.6s-25.6-12.8-25.6-25.6V275.2c0-12.8 12.8-25.6 25.6-25.6s25.6 12.8 25.6 25.6v499.2zM640 588.8h-57.6v57.6c0 12.8-12.8 25.6-25.6 25.6s-25.6-12.8-25.6-25.6v-57.6h-57.6c-12.8 0-25.6-6.4-25.6-25.6 0-12.8 12.8-25.6 25.6-25.6h57.6V512h-57.6c-12.8 0-25.6-12.8-25.6-25.6s12.8-25.6 25.6-25.6h32l-32-44.8c-12.8-6.4-6.4-25.6 0-32 12.8-12.8 25.6-6.4 38.4 0l44.8 57.6 44.8-57.6c12.8-6.4 25.6-12.8 38.4-6.4 12.8 12.8 12.8 25.6 6.4 38.4l-38.4 38.4h32c12.8 0 25.6 12.8 25.6 25.6s-12.8 25.6-25.6 25.6h-57.6v32h57.6c12.8 0 25.6 12.8 25.6 25.6 0 19.2-12.8 25.6-25.6 25.6z" fill="#ffffff" p-id="5208" data-spm-anchor-id="a313x.7781069.0.i3" class="selected"></path></svg>