<?xml version="1.0" standalone="no"?><!DOCTYPE svg PUBLIC "-//W3C//DTD SVG 1.1//EN" "http://www.w3.org/Graphics/SVG/1.1/DTD/svg11.dtd"><svg t="1560948275275" class="icon" style="" viewBox="0 0 1024 1024" version="1.1" xmlns="http://www.w3.org/2000/svg" p-id="4654" xmlns:xlink="http://www.w3.org/1999/xlink" width="32" height="32"><defs><style type="text/css"></style></defs><path d="M575.754919 785.07076h20.134532v3.473094h-20.134532zM664.347476 763.577279h4.983491v16.106808h-4.983491z" fill="#ffffff" p-id="4655"></path><path d="M89.19426 914.816517a42.822209 42.822209 0 0 0 12.588688 30.426925 42.886677 42.886677 0 0 0 30.426925 12.597898H891.77887a42.882584 42.882584 0 0 0 30.426926-12.597898 42.89077 42.89077 0 0 0 12.597897-30.426925V705.936603a42.883607 42.883607 0 0 0-12.597897-30.426926 42.89077 42.89077 0 0 0-30.426926-12.59585v-0.127913l-328.518495-0.01228H530.327377V430.591038a14.520686 14.520686 0 0 0-4.262061-10.284207 14.469521 14.469521 0 0 0-10.273974-4.249782 14.471567 14.471567 0 0 0-10.287277 4.260015 14.545245 14.545245 0 0 0-4.260015 10.274997h-0.127913v232.312556H132.210897a42.919423 42.919423 0 0 0-30.426926 12.597897 42.868258 42.868258 0 0 0-12.588688 30.435112v208.878891h-0.001023z m-33.981884 76.995451c-19.698605-19.696558-31.885134-46.920542-31.885135-76.995451V705.936603c0-30.061606 12.186529-57.2948 31.885135-76.995451 19.700652-19.698605 46.922589-31.898437 76.998521-31.898437h303.302234V430.591038h-0.127913c0-22.187281 9.01224-42.289067 23.560555-56.846592 14.545245-14.545245 34.657265-23.557485 56.845569-23.557485 22.19649-0.001023 42.2993 9.01224 56.845569 23.557485 14.544222 14.557525 23.559532 34.659312 23.559531 56.846592v166.57959l295.583452 0.010233v-0.127913c30.063653 0 57.286613 12.189599 76.995451 31.888204 19.710885 19.710885 31.89639 46.923612 31.89639 76.995451v208.879914c0 30.073886-12.185506 57.298893-31.89639 76.995451-19.708838 19.712931-46.922589 31.886157-76.995451 31.886157H132.210897c-30.075932 0-57.28866-12.173226-76.998521-31.886157z" fill="#ffffff" p-id="4656"></path><path d="M925.515162 413.830339c0 18.192301-14.739673 32.925834-32.931975 32.925835-18.182068 0-32.934021-14.73251-32.93402-32.923788 0-96.041188-38.889651-182.959619-101.800344-245.860079-62.899436-62.901483-149.817868-101.801367-245.848823-101.801367-96.040165 0-182.959619 38.900907-245.860079 101.801367-62.90046 62.90046-101.800344 149.818891-101.800344 245.860079 0 18.191278-14.743766 32.923788-32.935044 32.923788-18.182068 0-32.924811-14.73251-32.924811-32.923788 0-114.213023 46.268697-217.599488 121.097813-292.430651C294.400512 46.579782 397.788 0.301875 512 0.301875c114.209953-0.001023 217.596418 46.277907 292.417348 121.097813 74.835256 74.832186 121.097813 178.210465 121.097814 292.430651z" fill="#ffffff" p-id="4657"></path><path d="M790.001039 413.830339c0 18.192301-14.743766 32.925834-32.925834 32.925835-18.191278 0-32.934021-14.73251-32.934021-32.923788 0-58.609745-23.745773-111.646576-62.115585-150.025599-38.388232-38.381069-91.426086-62.116609-150.025599-62.116608-58.609745-0.001023-111.646576 23.73554-150.024575 62.116608-38.382092 38.379022-62.117632 91.415853-62.117632 150.025599 0 18.191278-14.753999 32.923788-32.935044 32.923788-18.191278 0-32.924811-14.73251-32.924812-32.923788 0-76.79079 31.10333-146.283375 81.404869-196.597194 50.314842-50.301539 119.806404-81.415102 196.597194-81.415102 76.771347 0 146.272119 31.113563 196.585938 81.415102 50.302562 50.312795 81.411009 119.815613 81.415101 196.595147zM129.241268 810.372978c0-19.151137 7.788368-36.509446 20.354543-49.07869 12.559012-12.556965 29.918344-20.346356 49.079714-20.346357 19.160347-0.002047 36.518655 7.788368 49.086877 20.346357 12.560035 12.565152 20.337147 29.927553 20.337146 49.07869v0.010233c0 19.16137-7.777112 36.519679-20.337146 49.076644-12.568222 12.569245-29.928577 20.34431-49.086877 20.34431-19.162394 0-36.520702-7.775065-49.079714-20.34431-12.565152-12.556965-20.354543-29.915274-20.354543-49.086877z m51.390335-18.036759a25.478227 25.478227 0 0 0-7.474214 18.037783 25.436271 25.436271 0 0 0 7.47319 18.043922 25.458784 25.458784 0 0 0 18.046992 7.475237 25.427062 25.427062 0 0 0 18.033689-7.475237 25.455714 25.455714 0 0 0 7.483424-18.033689l0.001023-0.010233c0-7.043402-2.859112-13.420634-7.484447-18.037783a25.451621 25.451621 0 0 0-18.042898-7.471143 25.489483 25.489483 0 0 0-18.036759 7.471143z m119.518855 18.036759c0-19.151137 7.779158-36.509446 20.33817-49.07869 12.567198-12.556965 29.925507-20.346356 49.0879-20.346357 19.162394-0.002047 36.518655 7.788368 49.086877 20.346357 12.569245 12.565152 20.33817 29.927553 20.33817 49.07869 0.001023 19.111228-7.767902 36.440884-20.33817 49.009106l-0.086981 0.077771c-12.568222 12.569245-29.898901 20.34431-48.999896 20.34431-19.152161 0-36.510469-7.775065-49.0879-20.34431-12.559012-12.556965-20.33817-29.915274-20.33817-49.086877z m51.392381-18.036759a25.381013 25.381013 0 0 0-7.48547 18.037783 25.399432 25.399432 0 0 0 7.48547 18.043922 25.36771 25.36771 0 0 0 18.033689 7.475237c7.072055 0 13.469753-2.832506 18.082808-7.435328a25.513019 25.513019 0 0 0 7.435328-18.083831c0-7.043402-2.860135-13.420634-7.475237-18.037783a25.451621 25.451621 0 0 0-18.042899-7.471143 25.430132 25.430132 0 0 0-18.033689 7.471143z" fill="#ffffff" p-id="4658"></path></svg>