<?xml version="1.0" standalone="no"?><!DOCTYPE svg PUBLIC "-//W3C//DTD SVG 1.1//EN" "http://www.w3.org/Graphics/SVG/1.1/DTD/svg11.dtd"><svg t="1560948972848" class="icon" style="" viewBox="0 0 1142 1024" version="1.1" xmlns="http://www.w3.org/2000/svg" p-id="12393" xmlns:xlink="http://www.w3.org/1999/xlink" width="35.6875" height="32"><defs><style type="text/css"></style></defs><path d="M854.646154 964.292923L742.045538 852.086154l241.033847-240.088616a57.462154 57.462154 0 0 1 80.738461 0l31.822769 31.665231a56.871385 56.871385 0 0 1 0 80.502154l-241.033846 240.049231z" fill="#ffffff" p-id="12394"></path><path d="M682.141538 1024l20.55877-76.563692 20.598154-76.603077 56.32 56.083692 56.280615 56.044308-76.918154 20.519384z" fill="#ffffff" p-id="12395"></path><path d="M505.107692 495.143385c-32.492308 35.485538-35.84 115.751385-35.84 115.751384-2.56 30.247385-16.541538 45.410462-41.826461 45.410462-27.884308 0-41.787077-15.163077-41.787077-45.410462 0 0 3.308308-71.522462 22.449231-104.96 22.646154-39.778462 41.235692-63.251692 69.632-86.409846 22.449231-18.274462 63.645538-28.120615 63.645538-88.694154-5.12-65.575385-43.086769-100.864-113.939692-105.944615-58.289231 0-94.995692 26.505846-110.158769 79.478154-10.121846 25.245538-22.843077 36.627692-37.96677 34.067692-30.365538-2.520615-44.307692-17.644308-41.787077-45.410462 12.642462-85.740308 75.972923-134.971077 189.912616-147.574153 126.621538 10.082462 195.032615 69.356308 205.154461 177.821538-2.56 103.424-90.624 131.623385-127.488 171.874462m-77.666461 304.64a52.775385 52.775385 0 0 1-52.854154-52.657231 52.775385 52.775385 0 0 1 52.854154-52.696616 52.775385 52.775385 0 0 1 52.893538 52.696616 52.775385 52.775385 0 0 1-52.893538 52.657231M790.724923 0H79.084308A79.163077 79.163077 0 0 0 0 78.769231v866.461538c0 43.323077 35.564308 78.769231 79.084308 78.769231h399.320615l391.404308-389.907692V78.769231c0-43.323077-35.603692-78.769231-79.084308-78.769231" fill="#ffffff" p-id="12396"></path></svg>