<?xml version="1.0" standalone="no"?><!DOCTYPE svg PUBLIC "-//W3C//DTD SVG 1.1//EN" "http://www.w3.org/Graphics/SVG/1.1/DTD/svg11.dtd"><svg t="1562829500836" class="icon" viewBox="0 0 1024 1024" version="1.1" xmlns="http://www.w3.org/2000/svg" p-id="4638" xmlns:xlink="http://www.w3.org/1999/xlink" width="64" height="64"><defs><style type="text/css"></style></defs><path d="M933.214321 895.509581 94.301759 895.509581c-14.481829 0-26.216081-11.742439-26.216081-26.216081 0-14.473643 11.734252-26.216081 26.216081-26.216081l838.912561 0c14.481829 0 26.216081 11.742439 26.216081 26.216081C959.430402 883.766119 947.69615 895.509581 933.214321 895.509581z" p-id="4639" fill="#ffffff"></path><path d="M92.287893 502.269381c-8.039093 0-15.984043-3.686972-21.12104-10.666944-8.593725-11.657504-6.101975-28.059056 5.555529-36.660968l332.060815-244.682745c8.516977-6.247284 19.978007-6.827499 29.040407-1.36509l159.78824 95.869465 318.0231-234.322793c11.640108-8.568143 28.059056-6.092765 36.652781 5.563716 8.593725 11.657504 6.101975 28.059056-5.555529 36.660968l-332.078211 244.682745c-8.499581 6.263657-19.952424 6.843872-29.040407 1.36509l-159.78824-95.869465L107.819634 497.166153C103.143125 500.613672 97.689926 502.269381 92.287893 502.269381z" p-id="4640" fill="#ffffff"></path><path d="M164.211992 755.690138c-19.303648 0-34.955116-15.651468-34.955116-34.955116L129.256876 598.394672c0-19.303648 15.651468-34.955116 34.955116-34.955116s34.955116 15.651468 34.955116 34.955116l0 122.341373C199.166085 740.039693 183.514617 755.690138 164.211992 755.690138z" p-id="4641" fill="#ffffff"></path><path d="M338.984505 755.690138c-19.303648 0-34.955116-15.651468-34.955116-34.955116L304.029388 528.485463c0-19.303648 15.651468-34.955116 34.955116-34.955116 19.303648 0 34.955116 15.651468 34.955116 34.955116l0 192.250582C373.939621 740.039693 358.288153 755.690138 338.984505 755.690138z" p-id="4642" fill="#ffffff"></path><path d="M513.75804 755.690138c-19.303648 0-34.955116-15.651468-34.955116-34.955116l0-244.682745c0-19.303648 15.651468-34.955116 34.955116-34.955116s34.955116 15.651468 34.955116 34.955116l0 244.682745C548.713156 740.039693 533.061688 755.690138 513.75804 755.690138z" p-id="4643" fill="#ffffff"></path><path d="M688.531576 755.690138c-19.303648 0-34.955116-15.651468-34.955116-34.955116L653.576459 493.530346c0-19.303648 15.651468-34.955116 34.955116-34.955116s34.955116 15.651468 34.955116 34.955116l0 227.205699C723.486692 740.039693 707.835224 755.690138 688.531576 755.690138z" p-id="4644" fill="#ffffff"></path><path d="M863.305111 755.690138c-19.303648 0-34.955116-15.651468-34.955116-34.955116L828.349995 353.711927c0-19.303648 15.651468-34.955116 34.955116-34.955116s34.955116 15.651468 34.955116 34.955116l0 367.024118C898.260228 740.039693 882.608759 755.690138 863.305111 755.690138z" p-id="4645" fill="#ffffff"></path></svg>