<?xml version="1.0" standalone="no"?><!DOCTYPE svg PUBLIC "-//W3C//DTD SVG 1.1//EN" "http://www.w3.org/Graphics/SVG/1.1/DTD/svg11.dtd"><svg t="1560948520947" class="icon" style="" viewBox="0 0 1024 1024" version="1.1" xmlns="http://www.w3.org/2000/svg" p-id="8105" xmlns:xlink="http://www.w3.org/1999/xlink" width="32" height="32"><defs><style type="text/css"></style></defs><path d="M935 198.9c-2.3-1-28.4-9.6-28.4-9.6L499 70.5l-1.1 0.1c-6.9-2.3-14.1-3.5-21.4-3.5-12.1 0-24 3.4-34.4 9.6h-0.6L95.9 257c-3.1 1.3-6.1 2.8-9 4.7l-1.3 0.7-0.2 0.4c-14.3 9.8-23.2 25.7-24 43.1l-0.4 0.7v425.8s0.6 16.4 2.2 19.7c4.6 20.1 18.4 37 37.3 45.2 0.8 0.4 3.7 1.7 4.6 2 3.8 1.7 10.2 3.7 10.2 3.7l432 151.5s15.6 4.4 17.7 4.9c4.8 1.2 9.7 1.8 14.6 1.8 14.1 0 28-5 38.9-14.5 1.3-1.1 14.3-12 14.3-12l279.7-211.5s20.8-19.2 23.3-22.4c10-12.7 16.5-27.9 18.9-44 0-0.2 0.1-0.5 0.2-0.7l0.9-1.7c0.2-0.3 0.2-0.7 0.2-1V642l0.1 0.1V230.3c-0.2-14-8.7-26.2-21.1-31.4z m-472.3-70.1c2.9-1.1 5.6-2.5 8.3-4.1 1.7-1 3.6-1.5 5.5-1.6 1.2 0 2.4 0.2 3.6 0.6 2.9 1 5.8 1.7 8.8 2.2l373.4 108.8-106.9 66c-1.8-1-3.3-2.2-5.3-2.8L357.6 183.6l105.1-54.8z m116.5 280.7l-418.6-123 125.2-65.4 406.8 118.4-113.4 70zM133.7 750.1c-0.7-0.2-0.9-0.3-1.5-0.5 0 0-3-0.9-4.9-1.7l-1.8-0.8-2.7-1.2c-2.5-1.1-4.4-3.5-5-6.3l-0.3-1.2c-0.2-1.9-0.4-4.7-0.5-7.2V332l438.6 128.9v437.2l-421.9-148zM899.9 642v2.8c-0.3 1.4-0.6 2.7-0.7 4-0.8 5.7-3 11.2-6.3 15.9-3 3-9.8 9.3-16.4 15.5L611.6 880.5V455.3L900 277.2V639c0 1-0.1 2-0.1 3z" fill="#ffffff" p-id="8106"></path><path d="M390.3 477.4l-151.6-44.1c-14.8-4.4-30.4 4.2-34.7 19.1-4.3 14.8 4.2 30.4 19.1 34.7l151.6 44.1c2.6 0.8 5.2 1.1 7.8 1.1 12.1 0 23.3-8 26.9-20.2 4.3-14.9-4.2-30.4-19.1-34.7z" fill="#ffffff" p-id="8107"></path></svg>