<svg t="1562391291312" class="icon" viewBox="0 0 1024 1024" version="1.1" xmlns="http://www.w3.org/2000/svg" p-id="6243" width="32" height="32"><path d="M847.768253 127.980813 175.951361 127.980813c-68.013023 0-111.960954 42.982954-111.960954 109.585861l0 526.231119c0 66.400293 66.539462 131.710764 134.356011 131.710764l627.02985 0c67.815525 0 134.056182-65.311495 134.056182-131.710764L959.432449 237.567697C959.430402 170.963767 915.781276 127.980813 847.768253 127.980813zM892.298446 763.797793c0 30.127158-36.153408 65.980737-66.923202 65.980737L198.345394 829.77853c-30.769794 0-67.223031-35.853579-67.223031-65.980737L131.122363 347.646791 492.682026 593.377402c5.752004 3.918239 12.476149 5.866614 19.167548 5.866614 6.691399 0 13.260002-1.948375 19.033495-5.866614l361.415376-245.690702L892.298446 763.797793zM892.298446 267.603781l-380.588041 258.710226-380.588041-258.752182 0-29.993105c0-29.934776 14.278191-43.855834 44.828998-43.855834l671.817915 0c30.550807 0 44.530193 13.921058 44.530193 43.855834L892.299469 267.603781z" p-id="6244" fill="#ffffff"></path></svg>