<?xml version="1.0" standalone="no"?><!DOCTYPE svg PUBLIC "-//W3C//DTD SVG 1.1//EN" "http://www.w3.org/Graphics/SVG/1.1/DTD/svg11.dtd"><svg t="1560948854739" class="icon" style="" viewBox="0 0 1024 1024" version="1.1" xmlns="http://www.w3.org/2000/svg" p-id="8513" xmlns:xlink="http://www.w3.org/1999/xlink" width="32" height="32"><defs><style type="text/css"></style></defs><path d="M470.3115 210.01H337.845c-16.2495 0-29.2395 17.9875-29.2395 40.226 0 22.284 13.011 40.328 29.2395 40.328h133.285c15.431 0 28.442-18.044 28.442-40.328 0-22.2385-12.99-40.226-29.2605-40.226z m143.837 26.8515h-65.9645c0.671 4.4015 1.0575 8.86 1.0575 13.371 0.021 33.858-19.72 67.1825-43.199 67.1825H303.3855c-24.708 0-44.4735-33.3205-44.4735-67.1825 0.021-4.511 0.411-8.9655 1.0785-13.371H193.2285c-53.6665 0-66.8495 37.8575-66.8495 92.47v540.995c0 58.6685 18.8805 91.5045 70.9035 91.5045h412.806c52.026 0 77.314-25.746 77.314-91.478V329.3355c0.003-54.6165-23.669-92.474-73.254-92.474zM546.375 771.004H259.516c-10.576 0-21.128-16.138-21.128-29.3175 0-13.1345 8.936-24.385 19.506-24.385h286.04c10.57 0 19.506 10.232 20.3065 24.385 0 13.183-7.2955 29.3175-17.866 29.3175z m1.1665-143.241H260.682c-10.576 0-17.3065-14.149-17.3065-27.336 0-13.1835 8.9325-26.3665 19.506-26.3665h286.037c10.576 0 19.506 12.2135 20.3065 26.3665 0 13.183-11.132 27.336-21.684 27.336z m0-147.12H260.682c-10.576 0-17.3065-14.1495-17.3065-27.3325s8.9325-26.37 19.506-26.37h286.037c10.576 0 19.506 12.221 20.3065 26.37 0 13.183-11.132 27.3325-21.684 27.3325z" fill="#ffffff" p-id="8514"></path><path d="M335.3125 181.184c0-54.6135 13.184-92.4725 66.8495-92.4725H468.925c-0.67 4.406-1.0575 8.862-1.08 13.3735 0 33.86 19.7665 67.181 44.475 67.181h202.6545c23.4785-0.0005 43.225-33.322 43.2-67.181 0-4.5115-0.3885-8.9685-1.055-13.3735h65.964v0.002c49.585 0 73.255 37.8585 73.255 92.472v541.018c0 65.733-25.2925 91.475-77.314 91.475h-96.4625v-190.82h32.744c10.5735-0.0065 17.865-16.138 17.865-29.3215-0.7955-14.156-9.734-24.386-20.3015-24.386h-30.3075V479.6145h33.91c10.555 0 21.69-14.156 21.69-27.34-0.802-14.15-9.735-26.364-20.308-26.364h-35.292V332.494h33.91c10.555-0.0005 21.69-14.15 21.69-27.332-0.802-14.1495-9.735-26.3695-20.308-26.3695h-36.3965c-5.1075-43.224-28.0435-72.0295-70.232-72.874v-0.213l-144.765 4.304c-4.021-15.5495-16.3675-30.962-29.1535-30.9625l-85.905 1.131-18.395-1.131c-17.84-1.9785 54.775-0.2-16.844 1.7775l-20.8505 0.36z m344.752-38.7685h-133.284c-16.229 0-29.24-18.045-29.24-40.329 0-22.2355 12.988-40.224 29.24-40.225h132.464c16.267 0.001 29.2585 17.9885 29.2585 40.225 0 22.2835-13.01 40.3285-28.4385 40.329z" fill="#ffffff" p-id="8515"></path></svg>