<?xml version="1.0" standalone="no"?><!DOCTYPE svg PUBLIC "-//W3C//DTD SVG 1.1//EN" "http://www.w3.org/Graphics/SVG/1.1/DTD/svg11.dtd"><svg t="1562829054089" class="icon" viewBox="0 0 1024 1024" version="1.1" xmlns="http://www.w3.org/2000/svg" p-id="2972" xmlns:xlink="http://www.w3.org/1999/xlink" width="64" height="64"><defs><style type="text/css"></style></defs><path d="M387.332 118.736h-199.615c-39.284 0-71.13 31.846-71.13 71.13v198.93c0 39.284 31.846 71.13 71.13 71.13h199.615c39.284 0 71.13-31.846 71.13-71.13v-198.93c0-39.284-31.845-71.13-71.13-71.13z" p-id="2973" fill="#ffffff"></path><path d="M387.332 562.988h-199.615c-39.284 0-71.13 31.846-71.13 71.13v198.93c0 39.284 31.846 71.13 71.13 71.13h199.615c39.284 0 71.13-31.846 71.13-71.13v-198.93c0-39.284-31.845-71.13-71.13-71.13z" p-id="2974" fill="#ffffff"></path><path d="M930.62 683.527l-141.15-141.15c-27.778-27.778-72.815-27.778-100.593 0l-140.665 140.665c-27.778 27.778-27.778 72.815 0 100.593l141.149 141.149c27.778 27.778 72.815 27.778 100.593 0l140.665-140.665c27.778-27.777 27.778-72.815 0.001-100.592z" p-id="2975" fill="#ffffff"></path><path d="M638.517 459.925h199.615c39.284 0 71.13-31.846 71.13-71.13v-198.931c0-39.284-31.846-71.13-71.13-71.13h-199.615c-39.284 0-71.13 31.846-71.13 71.13v198.93c0 39.284 31.845 71.131 71.13 71.131z" p-id="2976" fill="#ffffff"></path></svg>