<?xml version="1.0" standalone="no"?><!DOCTYPE svg PUBLIC "-//W3C//DTD SVG 1.1//EN" "http://www.w3.org/Graphics/SVG/1.1/DTD/svg11.dtd"><svg t="1562829803533" class="icon" viewBox="0 0 1024 1024" version="1.1" xmlns="http://www.w3.org/2000/svg" p-id="5735" xmlns:xlink="http://www.w3.org/1999/xlink" width="128" height="128"><defs><style type="text/css"></style></defs><path d="M596.2 197.3l89.8-91.2C725 66.4 696.4 0 640.3 0L383.7 0C327.6 0 299 66.4 338 106.1l89.8 91.2C221.6 229.9 64 408.4 64 623.7l0 249.6c0 83.3 67.5 150.7 150.7 150.7l594.5 0c83.3 0 150.7-67.5 150.7-150.7L959.9 623.7C960 408.4 802.4 229.9 596.2 197.3zM637.6 64 519.7 183.9c-2.5 2.6-5.6 3.1-7.7 3.1-2.1 0-5.1-0.5-7.7-3.1L386.4 64 637.6 64zM896 873.3c0 47.8-38.9 86.7-86.7 86.7L214.7 960c-47.8 0-86.7-38.9-86.7-86.7L128 623.7c0-49.7 9.7-97.8 28.9-143.1 18.5-43.8 45-83.1 78.8-116.9 33.8-33.8 73.1-60.3 116.9-78.8C397.9 265.7 446 256 495.7 256l32.6 0c49.7 0 97.8 9.7 143.1 28.9 43.8 18.5 83.1 45 116.9 78.8 33.8 33.8 60.3 73.1 78.8 116.9C886.3 525.9 896 574 896 623.7L896 873.3z" p-id="5736" fill="#ffffff"></path><path d="M651.3 458c29 0 52.7 23.6 52.7 52.7 0 17.7 14.3 32 32 32s32-14.3 32-32c0-64.3-52.3-116.7-116.7-116.7L544 394l0-47c0-17.7-14.3-32-32-32-17.7 0-32 14.3-32 32l0 47L372.7 394C308.3 394 256 446.3 256 510.7l0 12.7c0 64.3 52.3 116.7 116.7 116.7L480 640.1l0 128L372.7 768.1c-29 0-52.7-23.6-52.7-52.7 0-17.7-14.3-32-32-32s-32 14.3-32 32c0 64.3 52.3 116.7 116.7 116.7L480 832.1l0 39c0 17.7 14.3 32 32 32 17.7 0 32-14.3 32-32l0-39 107.3 0c64.3 0 116.7-52.3 116.7-116.7l0-22.7c0-64.3-52.3-116.7-116.7-116.7L544 576 544 458 651.3 458zM651.3 640c29 0 52.7 23.6 52.7 52.7l0 22.7c0 29-23.6 52.7-52.7 52.7L544 768.1 544 640 651.3 640zM480 576 372.7 576c-29 0-52.7-23.6-52.7-52.7l0-12.7c0-29 23.6-52.7 52.7-52.7L480 457.9 480 576z" p-id="5737" fill="#ffffff"></path></svg>