<svg t="1562739144572" class="icon" viewBox="0 0 1024 1024" version="1.1" xmlns="http://www.w3.org/2000/svg" p-id="2134" width="32" height="32"><path d="M800.581818 53.527273h-37.236363V23.272727H262.981818v30.254546H223.418182C176.872727 53.527273 139.636364 90.763636 139.636364 137.309091v802.909091c0 46.545455 37.236364 83.781818 83.781818 83.781818h512c13.963636 0 23.272727-9.309091 23.272727-23.272727s-9.309091-23.272727-23.272727-23.272728h-512c-20.945455 0-37.236364-16.290909-37.236364-37.236363V137.309091c0-20.945455 16.290909-37.236364 37.236364-37.236364h37.236363v60.509091h500.363637V100.072727h37.236363c23.272727 0 39.563636 16.290909 39.563637 37.236364v856.436364c0 13.963636 9.309091 23.272727 23.272727 23.272727s23.272727-9.309091 23.272727-23.272727V137.309091c0-46.545455-37.236364-83.781818-83.781818-83.781818z" p-id="2135" fill="#ffffff"></path><path d="M747.054545 621.381818h-349.090909c-13.963636 0-23.272727 9.309091-23.272727 23.272727s9.309091 23.272727 23.272727 23.272728h349.090909c13.963636 0 23.272727-9.309091 23.272728-23.272728s-11.636364-23.272727-23.272728-23.272727z" p-id="2136" fill="#ffffff"></path><path d="M307.2 644.654545m-30.254545 0a30.254545 30.254545 0 1 0 60.50909 0 30.254545 30.254545 0 1 0-60.50909 0Z" p-id="2137" fill="#ffffff"></path><path d="M747.054545 826.181818h-349.090909c-13.963636 0-23.272727 9.309091-23.272727 23.272727s9.309091 23.272727 23.272727 23.272728h349.090909c13.963636 0 23.272727-9.309091 23.272728-23.272728s-11.636364-23.272727-23.272728-23.272727z" p-id="2138" fill="#ffffff"></path><path d="M307.2 849.454545m-30.254545 0a30.254545 30.254545 0 1 0 60.50909 0 30.254545 30.254545 0 1 0-60.50909 0Z" p-id="2139" fill="#ffffff"></path><path d="M747.054545 416.581818h-349.090909c-13.963636 0-23.272727 9.309091-23.272727 23.272727s9.309091 23.272727 23.272727 23.272728h349.090909c13.963636 0 23.272727-9.309091 23.272728-23.272728s-11.636364-23.272727-23.272728-23.272727zM353.745455 372.363636c-11.636364-4.654545-25.6 0-30.254546 13.963637l-20.945454 48.872727-13.963637-9.309091c-11.636364-6.981818-25.6-2.327273-32.581818 6.981818s-2.327273 25.6 6.981818 32.581818l37.236364 23.272728c4.654545 2.327273 6.981818 2.327273 11.636363 2.327272 2.327273 0 4.654545 0 6.981819-2.327272 6.981818-2.327273 11.636364-6.981818 13.963636-13.963637l30.254545-76.8c9.309091-6.981818 2.327273-20.945455-9.30909-25.6z" p-id="2140" fill="#ffffff"></path></svg>