<?xml version="1.0" standalone="no"?><!DOCTYPE svg PUBLIC "-//W3C//DTD SVG 1.1//EN" "http://www.w3.org/Graphics/SVG/1.1/DTD/svg11.dtd"><svg t="1560947623805" class="icon" style="" viewBox="0 0 1024 1024" version="1.1" xmlns="http://www.w3.org/2000/svg" p-id="2180" xmlns:xlink="http://www.w3.org/1999/xlink" width="32" height="32"><defs><style type="text/css"></style></defs><path d="M980.48 419.84c-5.12-25.6-20.48-46.08-40.96-46.08H934.4c-66.56 0-122.88-56.32-122.88-122.88 0-20.48 10.24-46.08 10.24-46.08 10.24-25.6 0-51.2-20.48-66.56L683.52 71.68c-5.12-5.12-15.36-5.12-20.48-5.12-15.36 0-35.84 5.12-46.08 20.48-15.36 15.36-61.44 56.32-97.28 56.32S437.76 102.4 422.4 87.04c-10.24-10.24-25.6-20.48-46.08-20.48-10.24 0-15.36 0-20.48 5.12l-122.88 66.56c-20.48 15.36-30.72 46.08-20.48 66.56 0 0 10.24 25.6 10.24 46.08 0 66.56-56.32 122.88-122.88 122.88h-5.12c-20.48 0-35.84 15.36-40.96 46.08 0 0-10.24 51.2-10.24 92.16s10.24 92.16 10.24 92.16c5.12 25.6 20.48 46.08 40.96 46.08h5.12c66.56 0 122.88 56.32 122.88 122.88 0 20.48-10.24 46.08-10.24 46.08-10.24 25.6 0 51.2 20.48 66.56l117.76 66.56c5.12 5.12 15.36 5.12 20.48 5.12 15.36 0 35.84-5.12 46.08-20.48 15.36-15.36 61.44-56.32 97.28-56.32s87.04 40.96 97.28 56.32c10.24 10.24 25.6 20.48 46.08 20.48 10.24 0 15.36 0 20.48-5.12l117.76-66.56c20.48-15.36 30.72-46.08 20.48-66.56 0 0-10.24-25.6-10.24-46.08 0-66.56 56.32-122.88 122.88-122.88h5.12c20.48 0 35.84-15.36 40.96-46.08 0 0 10.24-51.2 10.24-92.16s-5.12-87.04-5.12-92.16z m-51.2 177.28c-97.28 5.12-163.84 83.84-163.84 181.12 0 30.72 10.24 66.56 15.36 71.68l-117.76 66.56h-5.12l-40.96-40.96c-35.84-25.6-71.68-40.96-102.4-40.96-30.72 0-66.56 15.36-102.4 40.96-25.6 15.36-40.96 35.84-40.96 35.84h-5.12l-112.64-61.44c5.12-5.12 15.36-35.84 15.36-71.68 0-97.28-76.8-179.2-174.08-184.32 0-10.24-10.24-51.2-10.24-81.92 0-30.72 5.12-76.8 10.24-81.92C192 424.96 268.8 343.04 268.8 245.76c0-30.72-10.24-66.56-15.36-71.68L371.2 107.52h5.12s20.48 20.48 40.96 35.84c35.84 25.6 66.56 35.84 97.28 35.84 30.72 0 61.44-10.24 97.28-35.84 25.6-15.36 40.96-35.84 40.96-35.84h5.12l112.64 61.44c-5.12 5.12-15.36 35.84-15.36 71.68 0 97.28 76.8 179.2 174.08 184.32 0 10.24 10.24 51.2 10.24 81.92 3.2 25.493333-0.213333 55.573333-10.24 90.24z" fill="#ffffff" p-id="2181"></path><path d="M517.12 358.4c87.04 0 158.72 71.68 158.72 158.72s-71.68 158.72-158.72 158.72S358.4 604.16 358.4 517.12c0-92.16 71.68-158.72 158.72-158.72z m0 271.36c61.44 0 112.64-51.2 112.64-112.64s-51.2-112.64-112.64-112.64-112.64 51.2-112.64 112.64 51.2 112.64 112.64 112.64z" fill="#ffffff" p-id="2182"></path></svg>