<?xml version="1.0" standalone="no"?><!DOCTYPE svg PUBLIC "-//W3C//DTD SVG 1.1//EN" "http://www.w3.org/Graphics/SVG/1.1/DTD/svg11.dtd"><svg t="1560948553155" class="icon" style="" viewBox="0 0 1453 1024" version="1.1" xmlns="http://www.w3.org/2000/svg" p-id="9917" xmlns:xlink="http://www.w3.org/1999/xlink" width="45.40625" height="32"><defs><style type="text/css"></style></defs><path d="M1209.04645867 349.91002812c-0.14058106-0.56232422-0.14058106-0.98406739-0.2811621-1.40581054-0.42174317-2.10871582-0.98406739-4.07685059-1.82755371-6.04498623L1122.58910213 132.29053437c-14.62043145-43.58013135-56.51358925-70.29053437-105.71696367-70.29053437H424.74467811C374.97898035 62 336.31918592 88.42924092 322.40166063 130.32239961L231.72687156 344.56794717c-0.42174317 1.2652295-0.84348633 3.0927832-1.26522949 5.06091885-6.60731045 20.24367363-9.84067471 41.04967237-9.84067471 61.85567021 0.14058106 73.24273652 40.20618516 140.15932559 104.87347646 174.60168662 26.56982197 14.19868828 57.9193998 21.36832207 93.06466788 21.36832295 59.04404912-0.14058106 113.73008467-26.14807881 150.98406679-70.57169648 37.11340195 44.00187451 91.37769434 69.86879122 150.28116242 70.14995331 58.48172402-0.42174317 112.60543623-26.28865987 149.57825711-70.29053437 37.25398301 44.42361768 92.08059961 70.29053437 151.40581085 70.29053437 35.98875352-0.14058106 67.76007539-7.73195888 94.61105859-22.49297138C1179.10269138 549.81630722 1218.60597215 483.18088115 1218.60597215 410.6410499c0.14058106-20.80599786-3.37394531-41.75257763-9.55951348-60.73102177z m-127.92877207 171.50890342c-16.30740411 8.99718838-36.69165879 13.49578213-60.30927773 13.63636406-43.86129346 0-83.78631651-22.21180839-107.12277421-60.0281165-1.68697266-3.51452636-4.3580127-9.41893154-9.55951261-15.18275566-5.90440518-6.60731045-16.72914727-14.47985039-34.58294297-14.47984951-14.33926934 0-27.27272724 5.90440518-34.72352403 14.90159267-4.92033779 5.48266201-7.59137783 10.96532315-9.41893154 14.90159356-23.0552956 37.25398301-62.69915654 59.7469544-105.5763826 60.0281165-43.43955029-0.28116211-83.22399229-22.63355244-106.41986896-60.16869756-1.68697266-3.37394531-4.3580127-8.85660732-8.57544521-13.63636407-16.86972833-20.24367363-54.8266166-19.1190252-69.58762822-1.54639159-5.48266201 5.90440518-8.2942831 11.94939053-10.1218377 16.02624199-23.19587666 37.25398301-63.26148076 59.60637334-106.84161124 59.74695439-23.19587666 0-43.15838818-4.3580127-59.18463016-12.93345878h-0.14058105C317.76248494 500.75351474 292.17673122 458.15745078 292.17673122 411.48453623c0-13.77694512 2.24929687-27.69447041 6.88847169-41.19025342 0.28116211-0.98406739 0.56232422-2.10871582 0.84348634-3.23336426L389.45882986 155.90815333c1.82755371-5.34208096 7.31021572-21.79006523 35.14526719-21.79006525h592.26804141c11.38706631 0.70290527 31.06841573 2.67104003 38.09746934 23.19587666L1138.61534412 365.655108c0.28116211 1.5463916 0.70290527 2.95220215 1.12464844 4.07685059 4.63917568 13.63636406 6.88847256 27.4133083 6.88847257 41.04967237 0.14058106 46.11059033-25.02343037 88.42549219-65.51077853 110.63730058zM1108.10925174 636.97656992c-19.96251153 0-35.98875352 16.02624199-35.98875352 35.98875352l0.14058105 196.39175273c0 11.1059042-9.13776943 20.24367363-20.24367363 20.24367363L374.83839929 890.02249297c-11.1059042 0-20.24367363-8.99718838-20.24367362-20.10309258l-0.281163-193.01780742c0-19.82193047-16.16682305-35.98875352-35.98875351-35.98875352-19.82193047 0-35.98875352 16.16682305-35.84817247 36.12933458l0.28116299 192.87722636c0 50.74976602 41.33083447 92.08059961 92.22118067 92.08059961l677.17900634-0.42174317c50.74976602-0.14058106 92.08059961-41.47141552 92.08059962-92.22118066V673.1059045c-0.14058106-20.10309258-16.30740411-36.12933457-36.12933457-36.12933458z" fill="#ffffff" p-id="9918"></path><path d="M1001.12705858 385.05529531H425.30700232c-19.82193047 0-35.98875352-16.16682305-35.98875352-35.98875351 0-19.82193047 16.16682305-35.98875352 35.98875352-35.98875352h575.82005626c19.96251153 0 35.98875352 16.16682305 35.9887535 35.98875352 0 19.82193047-16.02624199 35.98875352-35.9887535 35.98875351z" fill="#ffffff" p-id="9919"></path></svg>